# xmcd
#
# Track frame offsets:
#	150
#	11570
#	23720
#	36523
#	48221
#	61388
#	73649
#	86782
#	101418
#	115114
#	127784
#	140702
#	153750
#	167188
#	181581
#	194303
#	207022
#	222391
#	233626
#	248504
#	261240
#	273428
#	286619
#	299845
#	311171
#
# Disc length: 4320 seconds
#
# Revision: 1
# Processed by: cddbd v1.5.1PL2 Copyright (c) Steve Scherf et al.
# Submitted via: audiograbber 1.83.01
#
DISCID=6610de19
DTITLE=Gene Autry - Country Cowboys CD1
DYEAR=1900
DGENRE=Country
TTITLE0=You Are My Sunshine
TTITLE1=Blueberry Hill
TTITLE2=Goodbye little Darlin' Goodbye
TTITLE3=When The Swallows Come Back To Capistrano
TTITLE4=Lonely River
TTITLE5=I'll Wait For You
TTITLE6=South Of The Border
TTITLE7=Mexicali Rose
TTITLE8=A Year Ago Tonight
TTITLE9=I'll Never Let You Go
TTITLE10=Have I Told You Lately That I Love You?
TTITLE11=Blue Yodel No.s
TTITLE12=Ridin' Down The Canyon
TTITLE13=The Old Trail
TTITLE14=Any Old Time
TTITLE15=Rhythm Of The Hoofbeats
TTITLE16=Tumbling Tumbleweeds
TTITLE17=After Tomorrow
TTITLE18=Blue Hawaii
TTITLE19=Be Honest With Me
TTITLE20=Back In The saddle Again
TTITLE21=Paradise In The Moonlight
TTITLE22=Silver-Haired Daddy Of Mine
TTITLE23=Dust
TTITLE24=High Steppin' Mama
EXTD=
EXTT0=
EXTT1=
EXTT2=
EXTT3=
EXTT4=
EXTT5=
EXTT6=
EXTT7=
EXTT8=
EXTT9=
EXTT10=
EXTT11=
EXTT12=
EXTT13=
EXTT14=
EXTT15=
EXTT16=
EXTT17=
EXTT18=
EXTT19=
EXTT20=
EXTT21=
EXTT22=
EXTT23=
EXTT24=
PLAYORDER=
